HIERARCHY
ROOT Hips
{
	OFFSET	0.00	0.00	0.00
	CHANNELS 6 Xposition Yposition Zposition Zrotation Xrotation Yrotation
	JOINT LeftUpLeg
	{
		OFFSET	 0.126116	-0.014019	-0.065224
		CHANNELS 3 Zrotation Xrotation Yrotation
		JOINT LeftLeg
		{
			OFFSET	 0.000000	 0.000000	 0.569914
			CHANNELS 3 Zrotation Xrotation Yrotation
			JOINT LeftFoot
			{
				OFFSET	 0.000000	 0.000000	 0.544423
				CHANNELS 3 Zrotation Xrotation Yrotation
				JOINT LeftToeBase
				{
					OFFSET	 0.000000	 0.000000	 0.207117
					CHANNELS 3 Zrotation Xrotation Yrotation
					End Site
					{
						OFFSET	 0.000000	 0.000000	 0.207117
					}
				}
			}
		}
	}
	JOINT RightUpLeg
	{
		OFFSET	-0.124023	-0.008373	-0.065224
		CHANNELS 3 Zrotation Xrotation Yrotation
		JOINT RightLeg
		{
			OFFSET	 0.000000	 0.000000	 0.570047
			CHANNELS 3 Zrotation Xrotation Yrotation
			JOINT RightFoot
			{
				OFFSET	 0.000000	 0.000000	 0.544354
				CHANNELS 3 Zrotation Xrotation Yrotation
				JOINT RightToeBase
				{
					OFFSET	 0.000000	 0.000000	 0.207540
					CHANNELS 3 Zrotation Xrotation Yrotation
					End Site
					{
						OFFSET	 0.000000	 0.000000	 0.207540
					}
				}
			}
		}
	}
	JOINT Spine
	{
		OFFSET	 0.000184	-0.007763	 0.117403
		CHANNELS 3 Zrotation Xrotation Yrotation
		JOINT Spine1
		{
			OFFSET	 0.000000	 0.000000	 0.137269
			CHANNELS 3 Zrotation Xrotation Yrotation
			JOINT Spine2
			{
				OFFSET	 0.000000	 0.000000	 0.156879
				CHANNELS 3 Zrotation Xrotation Yrotation
				JOINT LeftShoulder
				{
					OFFSET	 0.080501	-0.002496	 0.160144
					CHANNELS 3 Zrotation Xrotation Yrotation
					JOINT LeftArm
					{
						OFFSET	 0.000000	 0.000000	 0.164363
						CHANNELS 3 Zrotation Xrotation Yrotation
						JOINT LeftForeArm
						{
							OFFSET	 0.000000	 0.000000	 0.364576
							CHANNELS 3 Zrotation Xrotation Yrotation
							JOINT LeftHand
							{
								OFFSET	 0.000000	 0.000000	 0.360812
								CHANNELS 3 Zrotation Xrotation Yrotation
								JOINT LeftHandIndex1
								{
									OFFSET	 0.000000	 0.000000	 0.086006
									CHANNELS 3 Zrotation Xrotation Yrotation
									JOINT LeftHandIndex2
									{
										OFFSET	 0.000000	 0.000000	 0.047236
										CHANNELS 3 Zrotation Xrotation Yrotation
										JOINT LeftHandIndex3
										{
											OFFSET	-0.004284	-0.000551	 0.038166
											CHANNELS 3 Zrotation Xrotation Yrotation
											End Site
											{
												OFFSET	-0.004284	-0.000551	 0.038166
											}
										}
									}
								}
							}
						}
					}
				}
				JOINT Neck
				{
					OFFSET	 0.000000	 0.000000	 0.176489
					CHANNELS 3 Zrotation Xrotation Yrotation
					JOINT Head
					{
						OFFSET	 0.000000	-0.001747	 0.077940
						CHANNELS 3 Zrotation Xrotation Yrotation
						End Site
						{
							OFFSET	 0.000000	-0.001747	 0.077940
						}
					}
				}
				JOINT RightShoulder
				{
					OFFSET	-0.080363	 0.000306	 0.159706
					CHANNELS 3 Zrotation Xrotation Yrotation
					JOINT RightArm
					{
						OFFSET	 0.000000	 0.000000	 0.164196
						CHANNELS 3 Zrotation Xrotation Yrotation
						JOINT RightForeArm
						{
							OFFSET	 0.000000	 0.000000	 0.365611
							CHANNELS 3 Zrotation Xrotation Yrotation
							JOINT RightHand
							{
								OFFSET	 0.000000	 0.000000	 0.360648
								CHANNELS 3 Zrotation Xrotation Yrotation
								JOINT RightHandIndex1
								{
									OFFSET	 0.000000	 0.000000	 0.069977
									CHANNELS 3 Zrotation Xrotation Yrotation
									JOINT RightHandIndex2
									{
										OFFSET	 0.000000	 0.000000	 0.052305
										CHANNELS 3 Zrotation Xrotation Yrotation
										JOINT RightHandIndex3
										{
											OFFSET	 0.009002	-0.000782	 0.042196
											CHANNELS 3 Zrotation Xrotation Yrotation
											End Site
											{
												OFFSET	 0.009002	-0.000782	 0.042196
											}
										}
									}
								}
							}
						}
					}
				}
			}
		}
	}
}
MOTION
Frames:    8
Frame Time: 0.03333334
 0.000295	 0.019678	 1.271734	-0.003012	 0.003630	 0.173768	-18.062910	-2.086786	-179.286800	 1.460697	-12.924220	-0.756402	-2.344175	 71.911090	-4.248956	-2.385833	 28.452760	 0.000004	 17.910330	-2.203838	 179.090400	-1.453050	-12.503140	 0.717508	 2.300740	 71.507820	 4.095855	 2.384658	 28.388730	 0.000004	-4.282042	 2.679222	 0.295547	-2.159869	 3.816127	-0.800394	 6.538335	-4.690995	 1.420093	-91.776200	 78.527400	-180.000000	 69.824250	 44.556050	-53.250500	-7.614367	 5.001403	-12.611690	-30.872650	-18.814510	-4.600209	-2.635965	 4.993658	 6.788941	-5.165319	 0.784187	 3.516649	-5.225038	 0.466231	 0.424329	-0.000002	-3.783157	-0.089647	 6.357388	 4.540234	-0.252289	 89.782100	 78.203890	 180.000000	-65.002500	 42.317790	 56.092110	 7.636361	 5.107738	 11.711780	 31.786750	-19.477660	 9.446856	 6.112037	 4.509576	-0.364401	 4.968462	 1.518543	-9.347576	 5.168945	 0.703820	 2.021906
 0.000297	 0.019645	 1.272256	-0.002777	 0.004061	 0.174391	-18.061260	-2.083937	-179.288000	 1.460781	-12.917760	-0.756013	-2.361356	 71.820690	-4.230927	-2.385833	 28.452760	 0.000004	 17.908560	-2.200031	 179.090500	-1.453163	-12.494050	 0.716968	 2.316903	 71.416110	 4.079211	 2.384658	 28.388730	 0.000004	-4.261501	 2.630880	 0.287797	-2.152099	 3.983561	-0.785201	 6.513850	-4.908043	 1.429120	-91.776180	 78.527450	 180.000000	 69.884640	 44.590450	-53.204790	-7.610552	 5.008750	-12.630640	-30.934610	-19.388710	-4.620677	-2.635965	 4.993658	 6.788941	-5.165319	 0.784187	 3.516649	-5.225038	 0.466231	 0.424329	-0.000002	-3.783157	-0.089647	 6.324800	 4.442151	-0.245566	 89.782070	 78.203890	-180.000000	-64.946420	 42.258940	 56.135080	 7.429720	 5.082644	 11.733380	 31.896500	-20.119380	 9.456944	 6.112037	 4.509576	-0.364401	 4.968462	 1.518543	-9.347576	 5.168945	 0.703820	 2.021906
 0.000297	 0.019587	 1.273207	-0.002322	 0.004866	 0.174198	-18.058140	-2.077411	-179.289100	 1.460985	-12.902410	-0.755082	-2.391402	 71.655650	-4.199201	-2.385833	 28.452760	 0.000004	 17.905510	-2.193693	 179.091600	-1.453345	-12.479450	 0.716106	 2.345883	 71.251440	 4.049540	 2.384658	 28.388730	 0.000004	-4.198047	 2.544245	 0.273017	-2.124803	 4.283461	-0.753064	 6.429168	-5.299701	 1.435877	-91.776190	 78.527430	-180.000000	 69.990830	 44.656460	-53.124280	-7.603280	 5.018092	-12.654630	-31.061290	-20.549640	-4.664681	-2.635965	 4.993658	 6.788941	-5.165319	 0.784187	 3.516649	-5.225038	 0.466231	 0.424329	-0.000002	-3.783157	-0.089647	 6.226652	 4.271019	-0.232427	 89.782140	 78.203870	 180.000000	-64.830550	 42.113060	 56.356380	 7.165850	 4.964705	 11.613010	 32.018490	-21.413900	 9.451356	 6.112037	 4.509576	-0.364401	 4.968462	 1.518543	-9.347576	 5.168945	 0.703820	 2.021906
 0.000295	 0.019549	 1.273830	-0.001997	 0.005386	 0.173182	-18.056020	-2.072381	-179.289200	 1.461162	-12.890260	-0.754346	-2.410323	 71.547450	-4.179097	-2.385833	 28.452760	 0.000004	 17.903580	-2.190008	 179.093100	-1.453457	-12.471370	 0.715623	 2.364485	 71.145360	 4.030565	 2.384658	 28.388730	 0.000004	-4.138857	 2.488730	 0.262993	-2.097940	 4.475641	-0.729222	 6.346329	-5.552596	 1.433360	-91.776180	 78.527430	 180.000000	 70.057300	 44.701570	-53.073450	-7.598276	 5.021235	-12.662840	-31.153700	-21.385930	-4.698647	-2.635965	 4.993658	 6.788941	-5.165319	 0.784187	 3.516649	-5.225038	 0.466231	 0.424329	-0.000002	-3.783157	-0.089647	 6.136137	 4.164448	-0.223322	 89.782100	 78.203850	 180.000000	-64.800060	 41.879570	 56.651840	 6.906283	 4.820566	 11.426170	 32.206680	-22.448920	 9.401462	 6.112037	 4.509576	-0.364401	 4.968462	 1.518543	-9.347576	 5.168945	 0.703820	 2.021906
 0.000290	 0.019498	 1.274670	-0.001561	 0.006067	 0.170655	-18.053010	-2.064432	-179.288300	 1.461417	-12.870840	-0.753171	-2.434718	 71.401360	-4.152943	-2.385833	 28.452760	 0.000004	 17.901010	-2.185469	 179.096000	-1.453573	-12.462140	 0.715079	 2.388994	 71.004390	 4.005556	 2.384658	 28.388730	 0.000004	-4.037877	 2.415777	 0.249328	-2.050785	 4.728261	-0.694131	 6.201508	-5.887327	 1.421185	-91.776150	 78.527450	 180.000000	 70.141930	 44.764450	-53.006920	-7.591578	 5.021686	-12.663920	-31.290210	-22.600850	-4.751482	-2.635965	 4.993658	 6.788941	-5.165319	 0.784187	 3.516649	-5.225038	 0.466231	 0.424329	-0.000002	-3.783157	-0.089647	 5.982671	 4.027991	-0.210587	 89.782060	 78.203870	-180.000000	-64.687910	 41.545710	 57.146000	 6.569714	 4.579009	 11.047090	 32.474770	-23.930110	 9.346416	 6.112037	 4.509576	-0.364401	 4.968462	 1.518543	-9.347576	 5.168945	 0.703820	 2.021906
 0.000281	 0.019447	 1.275547	-0.001107	 0.006745	 0.166578	-18.037050	-2.055146	-179.287300	 1.461721	-12.847810	-0.751778	-2.442209	 71.248860	-4.131057	-2.385833	 28.452760	 0.000004	 17.910270	-2.181932	 179.099400	-1.453651	-12.455670	 0.714695	 2.429796	 70.859940	 3.975909	 2.384658	 28.388730	 0.000004	-3.907341	 2.342111	 0.235111	-1.988447	 4.983412	-0.654220	 6.010715	-6.228109	 1.397468	-91.776220	 78.527430	-180.000000	 70.223270	 44.831680	-52.938700	-7.584306	 5.017725	-12.653780	-31.447160	-23.969440	-4.816127	-2.635965	 4.993658	 6.788941	-5.165319	 0.784187	 3.516649	-5.225038	 0.466231	 0.424329	-0.000002	-3.783157	-0.089647	 5.785240	 3.894412	-0.196868	 89.782140	 78.203850	 179.999900	-64.463810	 41.157180	 57.744870	 6.159258	 4.284025	 10.563300	 32.779510	-25.594790	 9.296223	 6.112037	 4.509576	-0.364401	 4.968462	 1.518543	-9.347576	 5.168945	 0.703820	 2.021906
 0.000270	 0.019401	 1.276332	-0.000700	 0.007312	 0.161705	-18.034720	-2.046013	-179.284400	 1.462035	-12.824780	-0.750381	-2.464243	 71.111990	-4.107874	-2.385833	 28.452760	 0.000004	 17.907300	-2.179534	 179.104100	-1.453698	-12.452440	 0.714504	 2.451005	 70.733110	 3.953632	 2.384658	 28.388730	 0.000004	-3.769598	 2.278632	 0.222607	-1.921594	 5.203372	-0.616077	 5.806683	-6.524090	 1.366576	-91.776150	 78.527470	 180.000000	 70.289000	 44.892660	-52.878030	-7.577978	 5.010385	-12.634840	-31.600070	-25.271740	-4.882985	-2.635965	 4.993658	 6.788941	-5.165319	 0.784187	 3.516649	-5.225038	 0.466231	 0.424329	-0.000002	-3.783157	-0.089647	 5.577596	 3.782639	-0.184341	 89.782070	 78.203870	-180.000000	-64.137950	 40.761410	 58.279960	 5.737803	 4.033659	 10.171500	 33.071070	-27.176990	 9.258551	 6.112037	 4.509576	-0.364401	 4.968462	 1.518543	-9.347576	 5.168945	 0.703820	 2.021906
 0.000254	 0.019351	 1.277226	-0.000257	 0.007885	 0.154694	-18.031970	-2.034816	-179.280000	 1.462424	-12.796180	-0.748652	-2.488723	 70.955260	-4.082039	-2.385833	 28.452760	 0.000004	 17.903870	-2.178040	 179.110600	-1.453697	-12.452330	 0.714500	 2.474863	 70.590700	 3.928476	 2.384658	 28.388730	 0.000004	-3.588584	 2.209147	 0.208775	-1.832545	 5.444397	-0.570068	 5.535674	-6.850798	 1.319924	-91.776180	 78.527420	 180.000000	 70.354570	 44.962460	-52.807300	-7.570554	 4.998034	-12.603000	-31.789390	-26.839670	-4.970774	-2.635965	 4.993658	 6.788941	-5.165319	 0.784187	 3.516649	-5.225038	 0.466231	 0.424329	-0.000002	-3.783157	-0.089647	 5.305389	 3.663744	-0.169817	 89.782170	 78.203900	 179.999900	-63.562340	 40.233260	 58.743980	 5.211469	 3.860180	 10.007560	 33.387520	-29.073640	 9.216923	 6.112037	 4.509576	-0.364401	 4.968462	 1.518543	-9.347576	 5.168945	 0.703820	 2.021906
